ffmpeg started on 2025-05-12 at 14:22:53
Report written to "D:\Convert\FFMetrics\reports\ssim_report-6.txt"
Log level: 32
Command line:
ffmpeg -hide_banner -nostdin -i "G:\\\xc0\xed\xe8\xec\xe5\\\xce\xed\xe3\xee\xe8\xed\xe3\xe8\\!_35_\xcb\xe5\xf2\xee_2024\\DreamCast\\\xc2\xe8\xf2\xf3\xe1\xe5\xf0 - \xdf \xf1\xf2\xe0\xeb\xe0 \xef\xee\xef\xf3\xeb\xff\xf0\xed\xee\xe9 \xef\xee\xf1\xeb\xe5 \xf2\xee\xe3\xee, \xea\xe0\xea \xe7\xe0\xe1\xfb\xeb\xe0 \xe2\xfb\xea\xeb\xfe\xf7\xe8\xf2\xfc \xf1\xf2\xf0\xe8\xec\\[DC] Vden - 09_Telegram_HEVC.mkv" -i "G:\\\xc0\xed\xe8\xec\xe5\\\xce\xed\xe3\xee\xe8\xed\xe3\xe8\\!_35_\xcb\xe5\xf2\xee_2024\\DreamCast\\\xc2\xe8\xf2\xf3\xe1\xe5\xf0 - \xdf \xf1\xf2\xe0\xeb\xe0 \xef\xee\xef\xf3\xeb\xff\xf0\xed\xee\xe9 \xef\xee\xf1\xeb\xe5 \xf2\xee\xe3\xee, \xea\xe0\xea \xe7\xe0\xe1\xfb\xeb\xe0 \xe2\xfb\xea\xeb\xfe\xf7\xe8\xf2\xfc \xf1\xf2\xf0\xe8\xec\\[DC] Vden - 09_Telegram.mp4" -lavfi "[0:v]settb=AVTB,setpts=PTS-STARTPTS,format=pix_fmts=yuv420p10,fps=24000/1001,scale=1920:1080:flags=bicubic[main];[1:v]settb=AVTB,setpts=PTS-STARTPTS,format=pix_fmts=yuv420p,fps=24000/1001,scale=1920:1080:flags=bicubic[ref];[main][ref]ssim=eof_action=endall:stats_file='D\\:/Convert/FFMetrics/logs/ssim_logfile-6.txt'" -f null -
Input #0, matroska,webm, from 'G:\Аниме\Онгоинги\!_35_Лето_2024\DreamCast\Витубер - Я стала популярной после того, как забыла выключить стрим\[DC] Vden - 09_Telegram_HEVC.mkv':
  Metadata:
    COMPATIBLE_BRANDS: isomiso2avc1mp41
    MAJOR_BRAND     : isom
    MINOR_VERSION   : 512
    ENCODER         : Lavf61.7.100
  Duration: 00:23:46.77, start: -0.021000, bitrate: 1280 kb/s
  Stream #0:0: Video: hevc (Main 10), yuv420p10le(tv, bt709, progressive), 1920x1080 [SAR 1:1 DAR 16:9], 23.98 fps, 23.98 tbr, 1k tbn (default)
      Metadata:
        HANDLER_NAME    : VideoHandler
        VENDOR_ID       : [0][0][0][0]
        ENCODER         : Lavc61.19.100 libx265
        BPS             : 1084156
        DURATION        : 00:23:46.633708333
        NUMBER_OF_FRAMES: 34205
        NUMBER_OF_BYTES : 193336635
        _STATISTICS_WRITING_APP: mkvpropedit v66.0.0 ('Josie') 64-bit
        _STATISTICS_WRITING_DATE_UTC: 2025-05-06 18:34:46
        _STATISTICS_TAGS: BPS DURATION NUMBER_OF_FRAMES NUMBER_OF_BYTES
  Stream #0:1: Audio: aac (LC), 48000 Hz, stereo, fltp (default)
      Metadata:
        HANDLER_NAME    : SoundHandler
        VENDOR_ID       : [0][0][0][0]
        ENCODER         : Lavc61.19.100 aac
        BPS             : 192190
        DURATION        : 00:23:46.773000000
        NUMBER_OF_FRAMES: 66881
        NUMBER_OF_BYTES : 34276544
        _STATISTICS_WRITING_APP: mkvpropedit v66.0.0 ('Josie') 64-bit
        _STATISTICS_WRITING_DATE_UTC: 2025-05-06 18:34:46
        _STATISTICS_TAGS: BPS DURATION NUMBER_OF_FRAMES NUMBER_OF_BYTES
Input #1, mov,mp4,m4a,3gp,3g2,mj2, from 'G:\Аниме\Онгоинги\!_35_Лето_2024\DreamCast\Витубер - Я стала популярной после того, как забыла выключить стрим\[DC] Vden - 09_Telegram.mp4':
  Metadata:
    major_brand     : isom
    minor_version   : 512
    compatible_brands: isomiso2avc1mp41
    encoder         : Lavf61.1.100
  Duration: 00:23:46.72, start: 0.000000, bitrate: 3809 kb/s
  Stream #1:0[0x1](und): Video: h264 (High) (avc1 / 0x31637661), yuv420p(tv, bt709, progressive), 1920x1080 [SAR 1:1 DAR 16:9], 3661 kb/s, 23.98 fps, 23.98 tbr, 24k tbn (default)
      Metadata:
        handler_name    : VideoHandler
        vendor_id       : [0][0][0][0]
        encoder         : Lavc61.3.100 h264_qsv
  Stream #1:1[0x2](und): Audio: aac (HE-AACv2) (mp4a / 0x6134706D), 48000 Hz, stereo, fltp, 144 kb/s (default)
      Metadata:
        handler_name    : SoundHandler
        vendor_id       : [0][0][0][0]
Stream mapping:
  Stream #0:0 (hevc) -> settb:default
  Stream #1:0 (h264) -> settb:default
  ssim:default -> Stream #0:0 (wrapped_avframe)
  Stream #0:1 -> #0:1 (aac (native) -> pcm_s16le (native))
Output #0, null, to 'pipe:':
  Metadata:
    COMPATIBLE_BRANDS: isomiso2avc1mp41
    MAJOR_BRAND     : isom
    MINOR_VERSION   : 512
    encoder         : Lavf61.7.100
  Stream #0:0: Video: wrapped_avframe, yuv420p10le(tv, bt709, progressive), 1920x1080 [SAR 1:1 DAR 16:9], q=2-31, 200 kb/s, 23.98 fps, 23.98 tbn
      Metadata:
        encoder         : Lavc61.19.100 wrapped_avframe
  Stream #0:1: Audio: pcm_s16le, 48000 Hz, stereo, s16, 1536 kb/s (default)
      Metadata:
        HANDLER_NAME    : SoundHandler
        VENDOR_ID       : [0][0][0][0]
        _STATISTICS_TAGS: BPS DURATION NUMBER_OF_FRAMES NUMBER_OF_BYTES
        BPS             : 192190
        DURATION        : 00:23:46.773000000
        NUMBER_OF_FRAMES: 66881
        NUMBER_OF_BYTES : 34276544
        _STATISTICS_WRITING_APP: mkvpropedit v66.0.0 ('Josie') 64-bit
        _STATISTICS_WRITING_DATE_UTC: 2025-05-06 18:34:46
        encoder         : Lavc61.19.100 pcm_s16le
frame=  154 fps=0.0 q=-0.0 size=N/A time=00:00:06.42 bitrate=N/A speed=12.2x    frame=  329 fps=317 q=-0.0 size=N/A time=00:00:13.72 bitrate=N/A speed=13.2x    frame=  477 fps=308 q=-0.0 size=N/A time=00:00:19.89 bitrate=N/A speed=12.9x    frame=  699 fps=338 q=-0.0 size=N/A time=00:00:29.15 bitrate=N/A speed=14.1x    frame=  913 fps=354 q=-0.0 size=N/A time=00:00:38.07 bitrate=N/A speed=14.8x    frame= 1104 fps=356 q=-0.0 size=N/A time=00:00:46.04 bitrate=N/A speed=14.8x    frame= 1320 fps=365 q=-0.0 size=N/A time=00:00:55.05 bitrate=N/A speed=15.2x    frame= 1515 fps=367 q=-0.0 size=N/A time=00:01:03.18 bitrate=N/A speed=15.3x    frame= 1702 fps=366 q=-0.0 size=N/A time=00:01:10.98 bitrate=N/A speed=15.3x    frame= 1895 fps=368 q=-0.0 size=N/A time=00:01:19.03 bitrate=N/A speed=15.3x    frame= 2100 fps=370 q=-0.0 size=N/A time=00:01:27.58 bitrate=N/A speed=15.4x    frame= 2287 fps=369 q=-0.0 size=N/A time=00:01:35.38 bitrate=N/A speed=15.4x    frame= 2466 fps=368 q=-0.0 size=N/A time=00:01:42.85 bitrate=N/A speed=15.3x    frame= 2670 fps=369 q=-0.0 size=N/A time=00:01:51.40 bitrate=N/A speed=15.4x    frame= 2832 fps=366 q=-0.0 size=N/A time=00:01:58.11 bitrate=N/A speed=15.3x    frame= 2996 fps=363 q=-0.0 size=N/A time=00:02:04.95 bitrate=N/A speed=15.1x    frame= 3156 fps=360 q=-0.0 size=N/A time=00:02:11.63 bitrate=N/A speed=  15x    frame= 3307 fps=356 q=-0.0 size=N/A time=00:02:17.92 bitrate=N/A speed=14.9x    frame= 3445 fps=352 q=-0.0 size=N/A time=00:02:23.68 bitrate=N/A speed=14.7x    frame= 3626 fps=352 q=-0.0 size=N/A time=00:02:31.23 bitrate=N/A speed=14.7x    frame= 3849 fps=355 q=-0.0 size=N/A time=00:02:40.53 bitrate=N/A speed=14.8x    frame= 4109 fps=362 q=-0.0 size=N/A time=00:02:51.37 bitrate=N/A speed=15.1x    frame= 4297 fps=362 q=-0.0 size=N/A time=00:02:59.22 bitrate=N/A speed=15.1x    frame= 4488 fps=363 q=-0.0 size=N/A time=00:03:07.18 bitrate=N/A speed=15.1x    frame= 4733 fps=367 q=-0.0 size=N/A time=00:03:17.40 bitrate=N/A speed=15.3x    frame= 4975 fps=371 q=-0.0 size=N/A time=00:03:27.49 bitrate=N/A speed=15.5x    frame= 5218 fps=375 q=-0.0 size=N/A time=00:03:37.63 bitrate=N/A speed=15.6x    frame= 5447 fps=377 q=-0.0 size=N/A time=00:03:47.18 bitrate=N/A speed=15.7x    frame= 5676 fps=380 q=-0.0 size=N/A time=00:03:56.73 bitrate=N/A speed=15.8x    frame= 5929 fps=383 q=-0.0 size=N/A time=00:04:07.28 bitrate=N/A speed=  16x    frame= 6161 fps=385 q=-0.0 size=N/A time=00:04:16.96 bitrate=N/A speed=16.1x    frame= 6380 fps=387 q=-0.0 size=N/A time=00:04:26.09 bitrate=N/A speed=16.1x    frame= 6640 fps=390 q=-0.0 size=N/A time=00:04:36.94 bitrate=N/A speed=16.3x    frame= 6890 fps=393 q=-0.0 size=N/A time=00:04:47.37 bitrate=N/A speed=16.4x    frame= 7153 fps=396 q=-0.0 size=N/A time=00:04:58.33 bitrate=N/A speed=16.5x    frame= 7393 fps=398 q=-0.0 size=N/A time=00:05:08.34 bitrate=N/A speed=16.6x    frame= 7649 fps=400 q=-0.0 size=N/A time=00:05:19.02 bitrate=N/A speed=16.7x    frame= 7904 fps=403 q=-0.0 size=N/A time=00:05:29.66 bitrate=N/A speed=16.8x    frame= 8146 fps=405 q=-0.0 size=N/A time=00:05:39.75 bitrate=N/A speed=16.9x    frame= 8386 fps=406 q=-0.0 size=N/A time=00:05:49.76 bitrate=N/A speed=16.9x    frame= 8630 fps=408 q=-0.0 size=N/A time=00:05:59.94 bitrate=N/A speed=  17x    frame= 8887 fps=410 q=-0.0 size=N/A time=00:06:10.66 bitrate=N/A speed=17.1x    frame= 9114 fps=411 q=-0.0 size=N/A time=00:06:20.12 bitrate=N/A speed=17.1x    frame= 9332 fps=411 q=-0.0 size=N/A time=00:06:29.22 bitrate=N/A speed=17.1x    frame= 9549 fps=411 q=-0.0 size=N/A time=00:06:38.27 bitrate=N/A speed=17.1x    frame= 9769 fps=411 q=-0.0 size=N/A time=00:06:47.44 bitrate=N/A speed=17.2x    frame=10011 fps=413 q=-0.0 size=N/A time=00:06:57.54 bitrate=N/A speed=17.2x    frame=10268 fps=415 q=-0.0 size=N/A time=00:07:08.26 bitrate=N/A speed=17.3x    frame=10519 fps=416 q=-0.0 size=N/A time=00:07:18.72 bitrate=N/A speed=17.3x    frame=10768 fps=417 q=-0.0 size=N/A time=00:07:29.11 bitrate=N/A speed=17.4x    frame=11017 fps=419 q=-0.0 size=N/A time=00:07:39.50 bitrate=N/A speed=17.5x    frame=11251 fps=419 q=-0.0 size=N/A time=00:07:49.26 bitrate=N/A speed=17.5x    frame=11501 fps=421 q=-0.0 size=N/A time=00:07:59.68 bitrate=N/A speed=17.5x    frame=11753 fps=422 q=-0.0 size=N/A time=00:08:10.19 bitrate=N/A speed=17.6x    frame=11957 fps=421 q=-0.0 size=N/A time=00:08:18.70 bitrate=N/A speed=17.6x    frame=12174 fps=421 q=-0.0 size=N/A time=00:08:27.75 bitrate=N/A speed=17.6x    frame=12418 fps=422 q=-0.0 size=N/A time=00:08:37.93 bitrate=N/A speed=17.6x    frame=12656 fps=423 q=-0.0 size=N/A time=00:08:47.86 bitrate=N/A speed=17.6x    frame=12850 fps=422 q=-0.0 size=N/A time=00:08:55.95 bitrate=N/A speed=17.6x    frame=13097 fps=423 q=-0.0 size=N/A time=00:09:06.25 bitrate=N/A speed=17.6x    frame=13317 fps=423 q=-0.0 size=N/A time=00:09:15.42 bitrate=N/A speed=17.6x    frame=13547 fps=423 q=-0.0 size=N/A time=00:09:25.02 bitrate=N/A speed=17.7x    frame=13774 fps=424 q=-0.0 size=N/A time=00:09:34.49 bitrate=N/A speed=17.7x    frame=14027 fps=425 q=-0.0 size=N/A time=00:09:45.04 bitrate=N/A speed=17.7x    frame=14266 fps=425 q=-0.0 size=N/A time=00:09:55.01 bitrate=N/A speed=17.7x    frame=14543 fps=427 q=-0.0 size=N/A time=00:10:06.56 bitrate=N/A speed=17.8x    frame=14779 fps=428 q=-0.0 size=N/A time=00:10:16.40 bitrate=N/A speed=17.8x    frame=15055 fps=429 q=-0.0 size=N/A time=00:10:27.91 bitrate=N/A speed=17.9x    frame=15318 fps=430 q=-0.0 size=N/A time=00:10:38.88 bitrate=N/A speed=17.9x    frame=15578 fps=431 q=-0.0 size=N/A time=00:10:49.73 bitrate=N/A speed=  18x    frame=15815 fps=432 q=-0.0 size=N/A time=00:10:59.61 bitrate=N/A speed=  18x    frame=16074 fps=433 q=-0.0 size=N/A time=00:11:10.41 bitrate=N/A speed=  18x    frame=16343 fps=434 q=-0.0 size=N/A time=00:11:21.63 bitrate=N/A speed=18.1x    frame=16590 fps=434 q=-0.0 size=N/A time=00:11:31.94 bitrate=N/A speed=18.1x    frame=16844 fps=435 q=-0.0 size=N/A time=00:11:42.53 bitrate=N/A speed=18.1x    frame=17075 fps=435 q=-0.0 size=N/A time=00:11:52.16 bitrate=N/A speed=18.2x    frame=17311 fps=436 q=-0.0 size=N/A time=00:12:02.01 bitrate=N/A speed=18.2x    frame=17514 fps=435 q=-0.0 size=N/A time=00:12:10.47 bitrate=N/A speed=18.1x    frame=17737 fps=435 q=-0.0 size=N/A time=00:12:19.78 bitrate=N/A speed=18.1x    frame=17917 fps=434 q=-0.0 size=N/A time=00:12:27.28 bitrate=N/A speed=18.1x    frame=18107 fps=433 q=-0.0 size=N/A time=00:12:35.21 bitrate=N/A speed=18.1x    frame=18317 fps=433 q=-0.0 size=N/A time=00:12:43.97 bitrate=N/A speed=18.1x    frame=18493 fps=432 q=-0.0 size=N/A time=00:12:51.31 bitrate=N/A speed=  18x    frame=18668 fps=431 q=-0.0 size=N/A time=00:12:58.61 bitrate=N/A speed=  18x    frame=18880 fps=430 q=-0.0 size=N/A time=00:13:07.45 bitrate=N/A speed=  18x    frame=19086 fps=430 q=-0.0 size=N/A time=00:13:16.04 bitrate=N/A speed=17.9x    frame=19318 fps=430 q=-0.0 size=N/A time=00:13:25.72 bitrate=N/A speed=17.9x    frame=19550 fps=430 q=-0.0 size=N/A time=00:13:35.39 bitrate=N/A speed=17.9x    frame=19772 fps=430 q=-0.0 size=N/A time=00:13:44.65 bitrate=N/A speed=17.9x    frame=19963 fps=430 q=-0.0 size=N/A time=00:13:52.66 bitrate=N/A speed=17.9x    frame=20128 fps=428 q=-0.0 size=N/A time=00:13:59.50 bitrate=N/A speed=17.9x    frame=20300 fps=427 q=-0.0 size=N/A time=00:14:06.67 bitrate=N/A speed=17.8x    frame=20478 fps=426 q=-0.0 size=N/A time=00:14:14.10 bitrate=N/A speed=17.8x    frame=20708 fps=427 q=-0.0 size=N/A time=00:14:23.69 bitrate=N/A speed=17.8x    frame=20923 fps=427 q=-0.0 size=N/A time=00:14:32.66 bitrate=N/A speed=17.8x    frame=21138 fps=426 q=-0.0 size=N/A time=00:14:41.63 bitrate=N/A speed=17.8x    frame=21358 fps=426 q=-0.0 size=N/A time=00:14:50.80 bitrate=N/A speed=17.8x    frame=21575 fps=426 q=-0.0 size=N/A time=00:14:59.85 bitrate=N/A speed=17.8x    frame=21771 fps=426 q=-0.0 size=N/A time=00:15:08.07 bitrate=N/A speed=17.8x    frame=21991 fps=426 q=-0.0 size=N/A time=00:15:17.20 bitrate=N/A speed=17.8x    frame=22226 fps=426 q=-0.0 size=N/A time=00:15:27.00 bitrate=N/A speed=17.8x    frame=22453 fps=426 q=-0.0 size=N/A time=00:15:36.47 bitrate=N/A speed=17.8x    frame=22672 fps=426 q=-0.0 size=N/A time=00:15:45.61 bitrate=N/A speed=17.8x    frame=22906 fps=427 q=-0.0 size=N/A time=00:15:55.37 bitrate=N/A speed=17.8x    frame=23119 fps=427 q=-0.0 size=N/A time=00:16:04.25 bitrate=N/A speed=17.8x    frame=23337 fps=426 q=-0.0 size=N/A time=00:16:13.34 bitrate=N/A speed=17.8x    frame=23561 fps=427 q=-0.0 size=N/A time=00:16:22.69 bitrate=N/A speed=17.8x    frame=23752 fps=426 q=-0.0 size=N/A time=00:16:30.65 bitrate=N/A speed=17.8x    frame=23863 fps=424 q=-0.0 size=N/A time=00:16:35.28 bitrate=N/A speed=17.7x    frame=24042 fps=423 q=-0.0 size=N/A time=00:16:42.75 bitrate=N/A speed=17.7x    frame=24238 fps=423 q=-0.0 size=N/A time=00:16:50.92 bitrate=N/A speed=17.6x    frame=24459 fps=423 q=-0.0 size=N/A time=00:17:00.14 bitrate=N/A speed=17.6x    frame=24655 fps=423 q=-0.0 size=N/A time=00:17:08.31 bitrate=N/A speed=17.6x    frame=24879 fps=423 q=-0.0 size=N/A time=00:17:17.66 bitrate=N/A speed=17.6x    frame=25124 fps=423 q=-0.0 size=N/A time=00:17:27.88 bitrate=N/A speed=17.7x    frame=25359 fps=423 q=-0.0 size=N/A time=00:17:37.68 bitrate=N/A speed=17.7x    frame=25563 fps=423 q=-0.0 size=N/A time=00:17:46.19 bitrate=N/A speed=17.7x    frame=25753 fps=423 q=-0.0 size=N/A time=00:17:54.11 bitrate=N/A speed=17.6x    frame=25982 fps=423 q=-0.0 size=N/A time=00:18:03.66 bitrate=N/A speed=17.6x    frame=26201 fps=423 q=-0.0 size=N/A time=00:18:12.80 bitrate=N/A speed=17.6x    frame=26421 fps=423 q=-0.0 size=N/A time=00:18:21.97 bitrate=N/A speed=17.6x    frame=26622 fps=423 q=-0.0 size=N/A time=00:18:30.35 bitrate=N/A speed=17.6x    frame=26839 fps=423 q=-0.0 size=N/A time=00:18:39.40 bitrate=N/A speed=17.6x    frame=27067 fps=423 q=-0.0 size=N/A time=00:18:48.91 bitrate=N/A speed=17.6x    frame=27300 fps=423 q=-0.0 size=N/A time=00:18:58.63 bitrate=N/A speed=17.6x    frame=27520 fps=423 q=-0.0 size=N/A time=00:19:07.81 bitrate=N/A speed=17.6x    frame=27765 fps=424 q=-0.0 size=N/A time=00:19:18.03 bitrate=N/A speed=17.7x    frame=28018 fps=424 q=-0.0 size=N/A time=00:19:28.58 bitrate=N/A speed=17.7x    frame=28245 fps=424 q=-0.0 size=N/A time=00:19:38.05 bitrate=N/A speed=17.7x    frame=28489 fps=425 q=-0.0 size=N/A time=00:19:48.22 bitrate=N/A speed=17.7x    frame=28725 fps=425 q=-0.0 size=N/A time=00:19:58.07 bitrate=N/A speed=17.7x    frame=28940 fps=425 q=-0.0 size=N/A time=00:20:07.03 bitrate=N/A speed=17.7x    frame=29175 fps=425 q=-0.0 size=N/A time=00:20:16.84 bitrate=N/A speed=17.7x    frame=29394 fps=425 q=-0.0 size=N/A time=00:20:25.97 bitrate=N/A speed=17.7x    frame=29633 fps=425 q=-0.0 size=N/A time=00:20:35.94 bitrate=N/A speed=17.7x    frame=29844 fps=425 q=-0.0 size=N/A time=00:20:44.74 bitrate=N/A speed=17.7x    frame=30054 fps=425 q=-0.0 size=N/A time=00:20:53.50 bitrate=N/A speed=17.7x    frame=30274 fps=425 q=-0.0 size=N/A time=00:21:02.67 bitrate=N/A speed=17.7x    frame=30494 fps=425 q=-0.0 size=N/A time=00:21:11.85 bitrate=N/A speed=17.7x    frame=30702 fps=425 q=-0.0 size=N/A time=00:21:20.52 bitrate=N/A speed=17.7x    frame=30911 fps=425 q=-0.0 size=N/A time=00:21:29.24 bitrate=N/A speed=17.7x    frame=31146 fps=425 q=-0.0 size=N/A time=00:21:39.04 bitrate=N/A speed=17.7x    frame=31343 fps=425 q=-0.0 size=N/A time=00:21:47.26 bitrate=N/A speed=17.7x    frame=31591 fps=425 q=-0.0 size=N/A time=00:21:57.60 bitrate=N/A speed=17.7x    frame=31822 fps=425 q=-0.0 size=N/A time=00:22:07.24 bitrate=N/A speed=17.7x    frame=32017 fps=425 q=-0.0 size=N/A time=00:22:15.37 bitrate=N/A speed=17.7x    frame=32245 fps=425 q=-0.0 size=N/A time=00:22:24.88 bitrate=N/A speed=17.7x    frame=32454 fps=425 q=-0.0 size=N/A time=00:22:33.60 bitrate=N/A speed=17.7x    frame=32665 fps=425 q=-0.0 size=N/A time=00:22:42.40 bitrate=N/A speed=17.7x    frame=32882 fps=425 q=-0.0 size=N/A time=00:22:51.45 bitrate=N/A speed=17.7x    frame=33105 fps=425 q=-0.0 size=N/A time=00:23:00.75 bitrate=N/A speed=17.7x    frame=33318 fps=425 q=-0.0 size=N/A time=00:23:09.63 bitrate=N/A speed=17.7x    frame=33538 fps=425 q=-0.0 size=N/A time=00:23:18.81 bitrate=N/A speed=17.7x    frame=33765 fps=425 q=-0.0 size=N/A time=00:23:28.28 bitrate=N/A speed=17.7x    frame=33985 fps=425 q=-0.0 size=N/A time=00:23:37.45 bitrate=N/A speed=17.7x    [Parsed_ssim_10 @ 000001eb0d5f6c80] SSIM Y:0.993765 (22.051629) U:0.992147 (21.049660) V:0.992212 (21.085479) All:0.993236 (21.698234)
[out#0/null @ 000001eb0abf4e00] video:14697KiB audio:267524KiB subtitle:0KiB other streams:0KiB global headers:0KiB muxing overhead: unknown
frame=34205 fps=425 q=-0.0 Lsize=N/A time=00:23:46.63 bitrate=N/A speed=17.7x    
